<svg width="50" height="50" viewBox="0 0 50 50" fill="none" xmlns="http://www.w3.org/2000/svg">
<g clip-path="url(#clip0)">
<path d="M32.7584 30.5584C33.1018 30.7721 33.5537 30.6671 33.7673 30.3236C34.7619 28.7259 35.2875 26.8851 35.2875 25.0002C35.2875 19.3923 30.6726 14.8298 25.0001 14.8298C19.3277 14.8298 14.7128 19.3922 14.7128 25.0002C14.7128 30.6082 19.3277 35.1705 25.0001 35.1705C27.304 35.1705 29.4818 34.4345 31.2982 33.0423C31.6193 32.7962 31.6801 32.3364 31.434 32.0154C31.1879 31.6944 30.7281 31.6334 30.4071 31.8796C28.8486 33.0742 26.9789 33.7056 25.0001 33.7056C20.1354 33.7056 16.1777 29.8004 16.1777 25.0002C16.1777 20.1999 20.1354 16.2947 25.0001 16.2947C29.8648 16.2947 33.8226 20.1999 33.8226 25.0002C33.8226 26.6113 33.3733 28.1843 32.5236 29.5495C32.3099 29.8928 32.4149 30.3446 32.7584 30.5584ZM26.1108 20.7962C26.6254 20.7962 27.0441 21.2981 27.0441 21.915C27.0441 22.3195 27.3719 22.6474 27.7766 22.6474C28.1812 22.6474 28.509 22.3195 28.509 21.915C28.509 20.4904 27.4332 19.3313 26.1108 19.3313H25.7326V18.6623C25.7326 18.2578 25.4048 17.9299 25.0001 17.9299C24.5955 17.9299 24.2677 18.2578 24.2677 18.6623V19.3313H23.8895C22.5671 19.3313 21.4913 20.4904 21.4913 21.915V23.149C21.4913 24.5736 22.5672 25.7326 23.8896 25.7326H24.2677V29.204H23.8895C23.3749 29.204 22.9562 28.7021 22.9562 28.0853C22.9562 27.6808 22.6283 27.3528 22.2237 27.3528C21.8191 27.3528 21.4913 27.6808 21.4913 28.0853C21.4913 29.5099 22.5671 30.6689 23.8895 30.6689H24.2677V31.3379C24.2677 31.7424 24.5955 32.0704 25.0001 32.0704C25.4048 32.0704 25.7326 31.7424 25.7326 31.3379V30.6689H26.1108C27.4332 30.6689 28.509 29.5099 28.509 28.0853V26.8511C28.509 26.1754 28.269 25.5366 27.8331 25.0522C27.3777 24.5462 26.766 24.2675 26.1107 24.2676H25.7326V20.7962H26.1108ZM24.2677 24.2677H23.8896C23.3749 24.2677 22.9562 23.7658 22.9562 23.149V21.915C22.9562 21.2981 23.3749 20.7962 23.8895 20.7962H24.2677V24.2677ZM26.1107 25.7325C26.3452 25.7325 26.5702 25.8389 26.7441 26.0322C26.9375 26.247 27.044 26.5379 27.044 26.8511V28.0853C27.044 28.7021 26.6253 29.204 26.1107 29.204H25.7325V25.7325H26.1107ZM49.1963 32.8789C48.3041 31.9866 46.9461 31.838 45.8978 32.4316L45.4819 32.0158C45.1466 31.6805 44.6687 31.5361 44.2031 31.629L39.7673 32.5164L37.4906 30.2396C38.1808 28.6287 38.5628 26.8578 38.5628 25.0002C38.5628 23.149 38.1817 21.3767 37.4906 19.7606L39.7673 17.484L44.2032 18.3713C44.669 18.4646 45.1466 18.3198 45.482 17.9845L45.8978 17.5687C46.3166 17.8059 46.7845 17.9252 47.2527 17.9252C47.9567 17.9252 48.6605 17.6573 49.1964 17.1214C50.2681 16.0497 50.2681 14.3059 49.1964 13.2342C48.1246 12.1625 46.3809 12.1626 45.3091 13.2342C44.4168 14.1266 44.2681 15.4845 44.8618 16.5329L44.4649 16.9298L40.0288 16.0425C39.5637 15.9489 39.0856 16.0941 38.7494 16.4302L36.802 18.3776C36.3092 17.5158 35.7229 16.7122 35.0556 15.9806L39.8784 11.1578C40.5382 11.6064 41.3056 11.8315 42.0734 11.8315C43.0736 11.8315 44.074 11.4507 44.8355 10.6892C45.5735 9.95135 45.9798 8.97035 45.9798 7.92693C45.9798 6.88352 45.5735 5.90251 44.8355 5.16468C43.3123 3.64156 40.8341 3.64165 39.3111 5.16468C38.5732 5.90251 38.1668 6.88352 38.1668 7.92693C38.1668 8.7218 38.4033 9.48004 38.8418 10.1226L34.0114 14.9529C33.2707 14.2987 32.4563 13.7232 31.5805 13.2406L33.5702 11.2508C33.9063 10.9147 34.0513 10.4364 33.958 9.97196L33.0705 5.53531L33.4673 5.13851C34.5289 5.73903 35.8817 5.57564 36.7661 4.69122C37.8378 3.61949 37.8378 1.87565 36.7661 0.804008C35.6942 -0.267726 33.9506 -0.267629 32.8788 0.804008C31.9864 1.69634 31.8378 3.05432 32.4315 4.10271L32.0156 4.51846C31.6802 4.85392 31.5357 5.33207 31.6289 5.79723L32.5163 10.2331L30.1789 12.5704C29.0672 12.1151 27.8784 11.8006 26.6333 11.6517C26.2326 11.6033 25.8671 11.8903 25.819 12.2921C25.7711 12.6938 26.0577 13.0583 26.4594 13.1063C32.5232 13.8313 37.0979 18.804 37.0979 25.0004C37.0979 31.6066 31.6709 36.9811 25.0001 36.9811C18.3294 36.9811 12.9024 31.6066 12.9024 25.0004C12.9024 19.0337 17.3598 14.0027 23.2306 13.1474C23.6309 13.0891 23.9081 12.7173 23.8498 12.317C23.7915 11.9166 23.42 11.6393 23.0193 11.6978C21.9159 11.8586 20.8435 12.1548 19.8243 12.5736L17.4839 10.2332L18.3712 5.79762C18.4645 5.33217 18.32 4.85402 17.9845 4.51846L17.5687 4.10281C18.1623 3.05451 18.0138 1.69644 17.1214 0.804106C16.0498 -0.267531 14.3061 -0.267629 13.2341 0.804106C12.1624 1.87584 12.1624 3.61968 13.2341 4.69132C14.1193 5.57652 15.4705 5.73932 16.5329 5.13861L16.9297 5.5354L16.0423 9.97147C15.9489 10.4364 16.0938 10.9148 16.43 11.2509L18.4241 13.2451C17.5564 13.7237 16.7404 14.2972 15.9927 14.9569L11.1583 10.1227C11.5968 9.48014 11.8333 8.7219 11.8333 7.92703C11.8333 6.88352 11.4269 5.90261 10.689 5.16478C9.16594 3.64175 6.68769 3.64165 5.16457 5.16478C4.42664 5.90261 4.02027 6.88362 4.02027 7.92703C4.02027 8.97044 4.42664 9.95145 5.16457 10.6893C6.50223 12.0268 8.58662 12.2001 10.1217 11.1578L14.9475 15.9836C14.2751 16.7188 13.6883 17.5258 13.1999 18.3794L11.2506 16.4301C10.9145 16.0941 10.4363 15.9492 9.97175 16.0424L5.53519 16.9299L5.1384 16.5331C5.73208 15.4848 5.58344 14.1268 4.69111 13.2344C3.61937 12.1628 1.87573 12.1627 0.803801 13.2344C-0.267934 14.3062 -0.267934 16.05 0.803801 17.1216H0.803898C1.689 18.0067 3.04014 18.1695 4.1025 17.5689L4.51834 17.9848C4.85371 18.32 5.33137 18.4646 5.79722 18.3715L10.233 17.4842L12.5117 19.7629C11.8085 21.4074 11.4374 23.1868 11.4374 25.0004C11.4374 26.858 11.8195 28.6289 12.5097 30.2398L10.233 32.5166L5.79712 31.6292C5.33147 31.5361 4.85371 31.6808 4.51825 32.0161L4.1025 32.4318C3.05421 31.8382 1.69623 31.9869 0.803898 32.8791C-0.267836 33.9508 -0.267836 35.6947 0.803898 36.7663C1.87563 37.838 3.61947 37.838 4.69121 36.7663C5.58354 35.874 5.73218 34.516 5.13849 33.4676L5.53539 33.0707L9.97145 33.9581C10.4363 34.0515 10.9146 33.9065 11.2509 33.5703L13.1997 31.6215C13.6938 32.4836 14.2809 33.2866 14.9479 34.0168L10.1219 38.8427C8.60244 37.8096 6.51083 37.9651 5.16476 39.3112C4.42684 40.049 4.02047 41.03 4.02047 42.0734C4.02047 43.1168 4.42684 44.0978 5.16476 44.8357C6.68799 46.3587 9.16604 46.3587 10.6892 44.8357C11.4271 44.0978 11.8335 43.1168 11.8335 42.0734C11.8335 41.2785 11.597 40.5203 11.1585 39.8778L15.9932 35.0432C16.7354 35.698 17.5501 36.2733 18.424 36.7558L16.4302 38.7496C16.0941 39.0858 15.9491 39.564 16.0424 40.0285L16.9299 44.4651L16.5331 44.8619C15.4849 44.2683 14.1269 44.4168 13.2343 45.3092C12.1626 46.381 12.1626 48.1248 13.2343 49.1964C14.306 50.2682 16.0499 50.2682 17.1216 49.1964C18.014 48.3041 18.1626 46.9461 17.5689 45.8977L17.9848 45.482C18.3202 45.1465 18.4647 44.6684 18.3715 44.2032L17.4841 39.7673L19.8242 37.4273C21.4201 38.083 23.1681 38.4458 25.0003 38.4458C26.8326 38.4458 28.5806 38.083 30.1765 37.4273L32.5165 39.7673L31.6293 44.2029C31.536 44.6684 31.6805 45.1465 32.016 45.4821L32.4318 45.8977C31.8382 46.946 31.9867 48.3041 32.8791 49.1964C33.9508 50.2682 35.6945 50.2683 36.7664 49.1964C37.8381 48.1247 37.8381 46.3809 36.7664 45.3092C35.8739 44.4168 34.516 44.2683 33.4677 44.8619L33.0709 44.4651L33.9583 40.0291C34.0517 39.5641 33.9067 39.0858 33.5706 38.7496L31.5767 36.7558C32.4507 36.2733 33.2654 35.698 34.0075 35.0432L38.8423 39.8778C38.4038 40.5203 38.1673 41.2785 38.1673 42.0734C38.1673 43.1169 38.5737 44.0978 39.3116 44.8357C40.8348 46.3587 43.3128 46.3587 44.836 44.8357C45.5739 44.0978 45.9803 43.1168 45.9803 42.0734C45.9803 41.03 45.5739 40.049 44.836 39.3112C43.4899 37.9651 41.3983 37.8096 39.8789 38.8427L35.0529 34.0168C35.7199 33.2865 36.3069 32.4835 36.801 31.6215L38.75 33.5704C39.0861 33.9065 39.5642 34.0513 40.0288 33.9582L44.4654 33.0706L44.8622 33.4674C44.2685 34.5157 44.4171 35.8738 45.3095 36.7661C46.3812 37.8378 48.125 37.8379 49.1968 36.7661C50.2681 35.6944 50.2681 33.9505 49.1963 32.8789ZM46.3451 14.27C46.5953 14.0198 46.9241 13.8946 47.2528 13.8946C47.5815 13.8946 47.9102 14.0197 48.1605 14.27C48.6611 14.7705 48.6611 15.585 48.1606 16.0856C47.661 16.5849 46.8487 16.5859 46.3481 16.0883C46.3471 16.0873 46.3463 16.0862 46.3454 16.0854C46.3444 16.0845 46.3433 16.0836 46.3424 16.0827C45.8446 15.5818 45.8453 14.7697 46.3451 14.27ZM40.347 6.20038C40.823 5.72438 41.4482 5.48648 42.0736 5.48648C42.6987 5.48648 43.324 5.72448 43.8 6.20038C44.2612 6.66154 44.5151 7.27465 44.5151 7.92684C44.5151 8.57902 44.2611 9.19213 43.8 9.65329C42.848 10.6053 41.2991 10.6052 40.3471 9.65329C39.886 9.19213 39.632 8.57902 39.632 7.92684C39.632 7.27465 39.8859 6.66154 40.347 6.20038ZM33.9148 1.8398C34.4153 1.33929 35.2296 1.33929 35.7302 1.8398C36.2308 2.34032 36.2308 3.15481 35.7302 3.65533C35.2306 4.15486 34.4187 4.15565 33.918 3.65826C33.9169 3.65718 33.9161 3.65611 33.9151 3.65503C33.9141 3.65396 33.9129 3.65318 33.9118 3.6521C33.4143 3.1513 33.4152 2.33934 33.9148 1.8398ZM16.0885 3.6521C16.0875 3.65308 16.0863 3.65396 16.0852 3.65503C16.0842 3.65611 16.0834 3.65718 16.0823 3.65826C15.5816 4.15565 14.7696 4.15486 14.2701 3.65533C13.7695 3.15481 13.7695 2.34032 14.2701 1.8398C14.7707 1.33929 15.585 1.33929 16.0855 1.8398C16.5851 2.33934 16.5859 3.1513 16.0885 3.6521ZM9.65337 9.65329C8.70147 10.6052 7.15256 10.6053 6.20046 9.65329C5.73931 9.19213 5.48539 8.57902 5.48539 7.92684C5.48539 7.27465 5.7394 6.66154 6.20046 6.20038C7.15237 5.24838 8.70157 5.24838 9.65337 6.20038C10.1145 6.66154 10.3684 7.27465 10.3684 7.92684C10.3684 8.57902 10.1144 9.19213 9.65337 9.65329ZM3.65844 16.0821C3.65736 16.0832 3.65609 16.0842 3.65492 16.0853C3.65385 16.0863 3.65287 16.0876 3.6518 16.0887C3.15079 16.5857 2.33923 16.5849 1.83969 16.0856H1.83979C1.33918 15.585 1.33918 14.7705 1.83979 14.27C2.3403 13.7694 3.1547 13.7696 3.65521 14.27C4.15475 14.7695 4.15573 15.5813 3.65844 16.0821ZM3.65531 35.7302C3.1548 36.2306 2.3404 36.2308 1.83989 35.7302C1.33928 35.2297 1.33928 34.4152 1.83979 33.9147C2.33933 33.4152 3.15441 33.4111 3.65229 33.912C3.65326 33.9129 3.65404 33.914 3.65502 33.9149C3.656 33.9158 3.65707 33.9166 3.65795 33.9175C4.15573 34.4184 4.15495 35.2307 3.65531 35.7302ZM9.65337 43.7999C8.70147 44.7517 7.15256 44.7519 6.20046 43.7999C5.73931 43.3387 5.48539 42.7256 5.48539 42.0734C5.48539 41.4212 5.7394 40.8081 6.20046 40.347C7.15237 39.395 8.70157 39.395 9.65337 40.347C10.1145 40.8081 10.3684 41.4212 10.3684 42.0734C10.3684 42.7256 10.1144 43.3387 9.65337 43.7999ZM16.0855 48.1605C15.5851 48.6611 14.7707 48.6611 14.2701 48.1605C13.7695 47.66 13.7695 46.8455 14.2701 46.345C14.7696 45.8456 15.5845 45.8415 16.0823 46.3421C16.0834 46.3432 16.0842 46.3442 16.0852 46.3453C16.0862 46.3464 16.0874 46.3472 16.0885 46.3482C16.5859 46.8489 16.5851 47.661 16.0855 48.1605ZM33.9119 46.3481C33.9129 46.3472 33.9141 46.3463 33.9151 46.3452C33.9162 46.3441 33.917 46.3431 33.9181 46.342C34.4159 45.8414 35.2307 45.8454 35.7303 46.3449C36.2309 46.8454 36.2309 47.6599 35.7303 48.1604C35.2297 48.661 34.4153 48.661 33.9149 48.1604C33.4152 47.661 33.4143 46.849 33.9119 46.3481ZM40.347 40.3471C41.2989 39.3951 42.848 39.3951 43.7999 40.3471C44.2611 40.8082 44.515 41.4213 44.515 42.0735C44.515 42.7257 44.261 43.3388 43.7999 43.8C42.8479 44.752 41.299 44.7518 40.347 43.8C39.8859 43.3388 39.6319 42.7257 39.6319 42.0735C39.6319 41.4213 39.8859 40.8082 40.347 40.3471ZM48.1604 35.7302C47.6598 36.2308 46.8454 36.2306 46.345 35.7302C45.8454 35.2308 45.8446 34.4189 46.3418 33.9181C46.3428 33.917 46.3441 33.9161 46.3453 33.915C46.3463 33.9139 46.3473 33.9126 46.3484 33.9116C46.8448 33.4098 47.661 33.4153 48.1604 33.9147C48.661 34.4152 48.661 35.2297 48.1604 35.7302Z" fill="black"/>
</g>
<defs>
<clipPath id="clip0">
<rect width="50" height="50" fill="white"/>
</clipPath>
</defs>
</svg>
