<svg width="50" height="53" viewBox="0 0 50 53" fill="none" xmlns="http://www.w3.org/2000/svg">
<path d="M41.2603 27.7601C40.8584 27.7601 40.5326 28.1023 40.5326 28.5245C40.5326 29.0596 40.1182 29.495 39.6087 29.495C39.0993 29.495 38.6848 29.0596 38.6848 28.5245C38.6848 28.1022 38.359 27.7601 37.9571 27.7601C37.5553 27.7601 37.2295 28.1023 37.2295 28.5245C37.2295 29.9026 38.2969 31.0237 39.6087 31.0237C40.9205 31.0237 41.9879 29.9025 41.9879 28.5245C41.9879 28.1021 41.6621 27.7601 41.2603 27.7601Z" fill="black"/>
<path d="M48.0902 27.885L46.0422 27.1959C45.7799 27.1075 45.5731 26.8876 45.4893 26.6074C45.0576 25.1658 44.4062 23.8125 43.5532 22.5848C43.1645 22.0252 42.7321 21.4908 42.2599 20.9821C42.562 19.5898 42.7263 18.014 42.705 16.6526C42.6745 14.7051 42.304 13.5628 41.5724 13.1603C41.1783 12.9432 39.9791 12.2838 33.4882 15.405C33.3345 15.4789 33.1909 15.5698 33.058 15.6741C32.6204 15.5506 32.1731 15.4363 31.7231 15.3337C31.6689 15.3213 31.6131 15.3103 31.5585 15.2982C32.0845 14.0912 32.3916 12.7803 32.4493 11.427C32.4673 11.0052 32.1564 10.648 31.7549 10.6293C31.3544 10.6083 31.0133 10.9368 30.9954 11.3586C30.9006 13.5837 30.0219 15.6774 28.5213 17.2537C27.6247 18.1956 26.5749 18.8797 25.4561 19.3105C23.5157 19.0245 21.5394 19.0245 19.599 19.3105C18.4801 18.8797 17.4304 18.1956 16.5338 17.2537C14.9328 15.572 14.0511 13.336 14.0511 10.9576C14.0511 8.57914 14.9328 6.34325 16.5338 4.66151C18.1348 2.97967 20.2635 2.05345 22.5275 2.05345C24.7916 2.05345 26.9203 2.97967 28.5213 4.66151C29.1646 5.33733 29.6963 6.10854 30.1015 6.95352C30.2822 7.33061 30.7198 7.48243 31.0787 7.29245C31.4377 7.10267 31.5821 6.643 31.4014 6.26601C30.9265 5.27516 30.3037 4.37171 29.5505 3.58039C27.6746 1.60988 25.1805 0.524658 22.5276 0.524658C19.8748 0.524658 17.3807 1.60988 15.5048 3.58039C13.6289 5.55101 12.5958 8.17087 12.5958 10.9575C12.5958 13.7442 13.6289 16.3641 15.5048 18.3347C16.0459 18.9031 16.6346 19.3919 17.2572 19.8014C17.2574 19.8014 17.2576 19.8013 17.2578 19.8013C16.8054 19.9248 16.3563 20.0635 15.9123 20.2194C15.5312 20.3533 15.3255 20.7863 15.4529 21.1868C15.5803 21.5871 15.9927 21.8032 16.3737 21.6694C20.3421 20.2758 24.7132 20.2758 28.6815 21.6694C28.7581 21.6963 28.8358 21.709 28.9123 21.709C29.2167 21.709 29.5005 21.5067 29.6023 21.1868C29.7298 20.7864 29.5241 20.3533 29.143 20.2194C28.6989 20.0635 28.2499 19.9247 27.7975 19.8013C27.7977 19.8013 27.7979 19.8014 27.798 19.8014C28.4208 19.3919 29.0094 18.9031 29.5505 18.3347C30.0292 17.8318 30.4518 17.2827 30.8187 16.6991C31.0192 16.74 31.2184 16.7829 31.4146 16.8276C31.6759 16.8872 31.936 16.9512 32.1938 17.0184C32.1857 17.0517 32.1774 17.0848 32.1707 17.1185C31.8158 18.8876 31.8389 20.4522 32.2392 21.7686C32.5989 22.9519 33.2482 23.9105 34.1688 24.6181C35.2539 25.4518 36.5639 25.812 37.7505 25.812C38.6436 25.812 39.4669 25.6079 40.0716 25.2481C40.7556 24.8412 41.3286 23.9837 41.7822 22.6963C41.9919 22.9533 42.1906 23.2167 42.3779 23.4863C43.1374 24.5792 43.7172 25.7837 44.1012 27.0662C44.3267 27.8195 44.8864 28.4122 45.5984 28.6519L47.6465 29.3411C48.1839 29.5219 48.5449 30.0415 48.5449 30.6342V34.2015C48.5449 34.7943 48.1839 35.3138 47.6465 35.4947L44.3468 36.6049C43.8188 36.7827 43.3721 37.1638 43.0888 37.6782C41.7924 40.0316 39.7542 41.9791 37.0305 43.4667C36.7158 43.6387 36.4979 43.9464 36.4322 44.311L35.3754 50.1893C35.3462 50.3512 35.2111 50.4687 35.0542 50.4687H31.618C31.461 50.4687 31.326 50.3511 31.2968 50.1893L30.7114 46.9406C30.5962 46.3014 30.0255 45.8768 29.4112 45.9745C27.9311 46.2097 26.4059 46.3288 24.8782 46.3288C23.7417 46.3288 22.6197 46.2622 21.5433 46.1308C20.948 46.0589 20.3936 46.4851 20.2823 47.1024L19.7261 50.1893C19.6969 50.3512 19.5618 50.4687 19.4049 50.4687H15.9687C15.8117 50.4687 15.6767 50.3511 15.6471 50.1868L14.6295 44.6348C14.564 44.2771 14.3501 43.9729 14.0424 43.8003C9.39942 41.1967 6.94531 36.8467 6.94531 31.2211C6.94531 28.3787 7.5373 25.8654 8.70479 23.7505C9.79424 21.7769 11.3854 20.1451 13.4342 18.9003C13.782 18.6889 13.9009 18.2213 13.6997 17.8558C13.4985 17.4904 13.0534 17.3658 12.7055 17.5769C8.73291 19.9909 6.33691 23.715 5.67725 28.4451V28.445C5.60723 28.4383 5.53711 28.432 5.46729 28.4244C5.47998 27.914 5.39209 27.3991 5.20068 26.8993C4.77852 25.7969 3.91133 25.0013 2.99131 24.8724C2.26631 24.7704 1.57637 25.0937 1.09756 25.7583C0.40332 26.7219 0.516504 27.4845 0.733594 27.9546C1.1001 28.7478 2.04219 29.309 3.60557 29.6617C3.5626 29.7293 3.51533 29.7972 3.46357 29.8655C2.53984 31.0824 1.45156 31.3515 0.744922 31.3768C0.33125 31.3915 0 31.7404 0 32.1752V32.1789C0 32.6078 0.322168 32.9576 0.730078 32.9772C0.782324 32.9798 0.836914 32.9811 0.89375 32.9811C1.78789 32.9811 3.22295 32.6347 4.60166 30.8187C4.81934 30.532 4.99668 30.2296 5.13301 29.9172C5.27031 29.9335 5.40225 29.9474 5.52861 29.9597C5.52861 29.9594 5.52861 29.9592 5.52871 29.9589C5.50391 30.3731 5.49014 30.7934 5.49014 31.2211C5.49014 34.404 6.2125 37.242 7.63701 39.6565C8.95049 41.8825 10.8311 43.7052 13.2283 45.0759L14.2176 50.4734C14.3767 51.3564 15.1131 51.9974 15.9687 51.9974H19.4049C20.2604 51.9974 20.9969 51.3564 21.156 50.4734L21.6589 47.6823C22.7034 47.7986 23.7849 47.8574 24.8781 47.8574C26.3781 47.8574 27.8764 47.7477 29.3365 47.531L29.8667 50.4736C30.0259 51.3566 30.7623 51.9975 31.6178 51.9975H35.054C35.9096 51.9975 36.646 51.3565 36.8052 50.4732L37.8342 44.75C40.7412 43.1353 42.9324 41.014 44.3482 38.4437C44.4503 38.2585 44.6074 38.1226 44.7906 38.0609L48.0902 36.9506C49.2325 36.5661 50 35.4614 50 34.2013V30.634C50 29.3741 49.2325 28.2694 48.0902 27.885ZM41.1404 18.8006C40.8604 21.3165 40.1091 23.4687 39.3542 23.9178C38.4962 24.4284 36.5152 24.527 35.0279 23.3841C33.5389 22.2399 33.0433 20.1823 33.5945 17.4337C33.5945 17.4336 33.5945 17.4336 33.5945 17.4336C33.6499 17.1575 33.8366 16.9187 34.0939 16.795C37.7369 15.0433 39.8372 14.4704 40.6175 14.4704C40.7353 14.4704 40.8229 14.4834 40.8813 14.5074C41.1157 14.7698 41.4231 16.2615 41.1404 18.8006ZM2.04307 27.2871C1.96777 27.1239 2.14551 26.8372 2.2582 26.6807C2.43682 26.4328 2.60137 26.3822 2.72568 26.3822C2.75195 26.3822 2.77646 26.3844 2.79893 26.3876C3.1335 26.4345 3.60225 26.8212 3.85059 27.4696C3.90908 27.6223 3.98506 27.8752 4.00283 28.1905C2.99551 27.9713 2.21289 27.6552 2.04307 27.2871Z" fill="black"/>
<path d="M23.2337 10.0816V7.34632C24.1316 7.41371 24.4652 7.84487 24.773 7.84487C25.1579 7.84487 25.3375 7.33288 25.3375 7.07683C25.3375 6.41651 24.106 6.13358 23.2337 6.10661V5.74264C23.2337 5.58097 23.0412 5.43274 22.8488 5.43274C22.6307 5.43274 22.4768 5.58097 22.4768 5.74264V6.13338C21.2581 6.26817 20.0395 6.94194 20.0395 8.63978C20.0395 10.3646 21.3223 10.8497 22.4768 11.2809V14.4475C21.1683 14.3397 20.822 13.3964 20.3986 13.3964C20.0779 13.3964 19.8086 13.8411 19.8086 14.1646C19.8086 14.8248 20.8861 15.7276 22.4768 15.7546V16.1723C22.4768 16.334 22.6308 16.4822 22.8488 16.4822C23.0413 16.4822 23.2337 16.334 23.2337 16.1723V15.7142C24.6191 15.512 25.5684 14.5957 25.5684 12.9383C25.5684 11.1058 24.3497 10.5127 23.2337 10.0816ZM22.5537 9.82564C21.8738 9.55615 21.3223 9.27323 21.3223 8.50519C21.3223 7.80445 21.8354 7.46757 22.5537 7.3733V9.82564ZM23.1566 14.4205V11.5773C23.7852 11.8603 24.2854 12.2376 24.2854 13.0864C24.2854 13.8547 23.8493 14.2858 23.1566 14.4205Z" fill="black"/>
</svg>
