<svg width="50" height="50" viewBox="0 0 50 50" fill="none" xmlns="http://www.w3.org/2000/svg">
<path d="M25.6526 27.2879C25.5601 27.2678 25.4652 27.2642 25.3715 27.2782C24.4324 27.1689 23.724 26.3744 23.7224 25.4293C23.7224 24.9764 23.3552 24.6092 22.9023 24.6092C22.4493 24.6092 22.0821 24.9764 22.0821 25.4293C22.0845 27.0075 23.1401 28.3899 24.6619 28.8076V29.6278C24.6619 30.0807 25.0291 30.4479 25.482 30.4479C25.935 30.4479 26.3022 30.0807 26.3022 29.6278V28.8573C28.0586 28.4896 29.2524 26.8538 29.0678 25.0689C28.8827 23.284 27.379 21.9277 25.5845 21.9273C24.5562 21.9273 23.7224 21.0935 23.7224 20.0651C23.7224 19.0368 24.5562 18.203 25.5845 18.203C26.6129 18.203 27.4467 19.0368 27.4467 20.0651C27.4467 20.5181 27.8139 20.8853 28.2668 20.8853C28.7198 20.8853 29.087 20.5181 29.087 20.0651C29.0846 18.408 27.9236 16.9788 26.3022 16.6368V15.8903C26.3022 15.4374 25.935 15.0702 25.482 15.0702C25.0291 15.0702 24.6619 15.4374 24.6619 15.8903V16.6869C22.9695 17.149 21.8803 18.7921 22.1134 20.5309C22.3464 22.2697 23.8301 23.5676 25.5845 23.5672C26.5993 23.5672 27.4271 24.3797 27.4455 25.3941C27.4643 26.4084 26.6666 27.251 25.6526 27.2879Z" fill="black"/>
<path d="M13.6914 22.8103C13.6914 29.3786 19.0159 34.7031 25.5843 34.7031C32.1527 34.7031 37.4772 29.3786 37.4772 22.8103C37.4772 16.2419 32.1527 10.9174 25.5843 10.9174C19.0191 10.9246 13.699 16.2451 13.6914 22.8103ZM25.5843 12.5576C31.2468 12.5576 35.8369 17.1477 35.8369 22.8103C35.8369 28.4728 31.2468 33.0629 25.5843 33.0629C19.9218 33.0629 15.3317 28.4728 15.3317 22.8103C15.3381 17.1505 19.9246 12.5641 25.5843 12.5576Z" fill="black"/>
<path d="M41.5207 36.7251L35.0961 39.7606C34.2091 38.1107 32.5075 37.0607 30.635 37.0078L24.7041 36.8448C23.765 36.818 22.8436 36.5801 22.0086 36.1488L21.4051 35.8361C18.3152 34.2254 14.6321 34.2294 11.5454 35.8465L11.583 34.4793C11.5954 34.0264 11.2386 33.6491 10.7857 33.6367L4.28221 33.4577C3.82929 33.4453 3.45246 33.8021 3.44004 34.255L3.04719 48.5267C3.03478 48.9796 3.39159 49.3568 3.84451 49.3692L10.348 49.5482H10.3704C10.8149 49.5482 11.1786 49.1946 11.1906 48.7505L11.2094 48.0677L12.8989 47.1631C13.5621 46.8063 14.3374 46.7214 15.0618 46.9264L25.151 49.7581C25.1687 49.7633 25.1863 49.7673 25.2043 49.7713C25.9335 49.9239 26.6768 50.0004 27.4217 50C28.9995 50.0008 30.5589 49.6608 31.9929 49.0024C32.0282 48.9864 32.0622 48.9676 32.0946 48.9464L46.7231 39.4843C47.0875 39.2484 47.2052 38.7698 46.9918 38.3918C45.9057 36.4648 43.497 35.7307 41.5207 36.7251ZM4.7095 47.7522L5.0571 35.12L9.9207 35.2538L9.5731 47.8863L4.7095 47.7522ZM31.2541 47.5375C29.4724 48.3417 27.4825 48.5635 25.5675 48.1723L15.5055 45.3478C14.373 45.0278 13.1608 45.1604 12.1248 45.7174L11.2614 46.18L11.4925 37.7811C14.2285 35.9614 17.7373 35.7744 20.6511 37.2925L21.2546 37.6053C22.3094 38.1499 23.4727 38.4503 24.6593 38.4847L30.5905 38.6477C32.2564 38.6957 33.6712 39.8819 34.0092 41.5142L25.1747 41.2703C24.7217 41.2579 24.3449 41.6151 24.3321 42.0676C24.3197 42.5205 24.6769 42.8978 25.1294 42.9102L34.879 43.1785H34.9019C35.346 43.1781 35.7092 42.8245 35.7212 42.3808C35.7312 42.0244 35.7048 41.6676 35.6419 41.3168L42.2315 38.2032C42.2379 38.2004 42.2443 38.1972 42.2507 38.194C43.1854 37.721 44.3155 37.8792 45.0844 38.5908L31.2541 47.5375Z" fill="black"/>
<path d="M26.4049 8.61151V0.820144C26.4049 0.367223 26.0377 0 25.5848 0C25.1319 0 24.7646 0.367223 24.7646 0.820144V8.61151C24.7646 9.06444 25.1319 9.43166 25.5848 9.43166C26.0377 9.43166 26.4049 9.06444 26.4049 8.61151Z" fill="black"/>
<path d="M32.5553 8.6115V4.92085C32.5553 4.46793 32.1881 4.10071 31.7352 4.10071C31.2823 4.10071 30.915 4.46793 30.915 4.92085V8.6115C30.915 9.06442 31.2823 9.43165 31.7352 9.43165C32.1881 9.43165 32.5553 9.06442 32.5553 8.6115Z" fill="black"/>
<path d="M20.2536 8.6115V4.92085C20.2536 4.46793 19.8863 4.10071 19.4334 4.10071C18.9805 4.10071 18.6133 4.46793 18.6133 4.92085V8.6115C18.6133 9.06442 18.9805 9.43165 19.4334 9.43165C19.8863 9.43165 20.2536 9.06442 20.2536 8.6115Z" fill="black"/>
</svg>
