<svg width="40" height="38" viewBox="0 0 40 38" fill="none" xmlns="http://www.w3.org/2000/svg">
<path d="M19.0489 2.16312C19.3483 1.24181 20.6517 1.24181 20.9511 2.16312L24.2128 12.2016C24.6144 13.4377 25.7663 14.2746 27.0659 14.2746H37.621C38.5898 14.2746 38.9925 15.5142 38.2088 16.0836L29.6696 22.2877C28.6181 23.0517 28.1781 24.4058 28.5798 25.6418L31.8415 35.6803C32.1408 36.6017 31.0863 37.3678 30.3026 36.7984L21.7634 30.5942C20.7119 29.8303 19.2881 29.8303 18.2366 30.5942L9.69738 36.7984C8.91367 37.3678 7.85918 36.6017 8.15854 35.6803L11.4202 25.6418C11.8219 24.4058 11.3819 23.0517 10.3304 22.2877L1.79117 16.0836C1.00746 15.5142 1.41023 14.2746 2.37895 14.2746H12.9341C14.2337 14.2746 15.3856 13.4377 15.7872 12.2016L19.0489 2.16312Z" fill="white" stroke="black" stroke-width="2"/>
</svg>
